<svg xmlns="http://www.w3.org/2000/svg" viewBox="389.634 112.849 135.28 74.38" xmlns:bx="https://boxy-svg.com">
  <g transform="matrix(1, 0, 0, 1, 101.978004, 21.748005)">
    <path d="M 318.05 151.129 Q 311.12 151.129 305.585 148.159 Q 300.05 145.189 296.855 139.384 Q 293.66 133.579 293.66 124.939 Q 293.66 116.209 296.81 110.359 Q 299.96 104.509 305.585 101.584 Q 311.21 98.659 318.41 98.659 Q 324.35 98.659 328.94 100.819 Q 333.53 102.979 336.635 107.074 Q 339.74 111.169 340.82 117.109 L 336.59 117.109 Q 335.69 112.339 333.125 109.054 Q 330.56 105.769 326.825 104.104 Q 323.09 102.439 318.41 102.439 Q 308.87 102.439 303.335 108.199 Q 297.8 113.959 297.8 124.759 Q 297.8 135.919 303.245 141.634 Q 308.69 147.349 318.05 147.349 Q 323.18 147.349 327.14 145.639 Q 331.1 143.929 333.575 140.689 Q 336.05 137.449 336.86 132.769 L 341.27 132.769 Q 340.19 138.619 337.13 142.714 Q 334.07 146.809 329.255 148.969 Q 324.44 151.129 318.05 151.129 Z" style="fill: rgb(51, 51, 51); text-wrap-mode: nowrap;"></path>
    <path d="M 372.858 151.489 Q 360.528 151.489 354.048 144.334 Q 347.568 137.179 347.568 125.029 Q 347.568 117.109 350.358 111.169 Q 353.148 105.229 358.773 101.944 Q 364.398 98.659 372.858 98.659 Q 381.138 98.659 386.763 101.944 Q 392.388 105.229 395.223 111.124 Q 398.058 117.019 398.058 124.939 Q 398.058 132.859 395.223 138.844 Q 392.388 144.829 386.763 148.159 Q 381.138 151.489 372.858 151.489 Z M 379.338 161.749 Q 377.628 161.749 375.828 161.479 Q 374.028 161.209 372.498 160.129 Q 370.968 159.049 370.023 156.574 Q 369.078 154.099 369.078 149.689 L 369.078 145.819 L 377.808 145.819 L 377.808 149.059 Q 377.808 151.129 377.898 152.389 Q 377.988 153.649 378.888 154.189 Q 379.788 154.729 381.948 154.729 Q 382.398 154.729 383.793 154.324 Q 385.188 153.919 386.358 153.919 L 386.448 160.849 Q 386.268 160.849 385.233 160.984 Q 384.198 161.119 382.938 161.299 Q 381.678 161.479 380.598 161.614 Q 379.518 161.749 379.338 161.749 Z M 372.768 142.489 Q 380.778 142.489 384.738 137.629 Q 388.698 132.769 388.698 124.759 Q 388.698 116.659 384.783 111.799 Q 380.868 106.939 372.768 106.939 Q 364.938 106.939 360.888 111.619 Q 356.838 116.299 356.838 124.669 Q 356.838 132.769 360.798 137.629 Q 364.758 142.489 372.768 142.489 Z" style="fill: rgb(51, 51, 51); text-wrap-mode: nowrap;"></path>
    <path d="M 411.32 150.229 Q 407.36 150.229 405.985 148.249 Q 404.61 146.269 404.61 143.409 Q 404.61 140.769 405.985 138.789 Q 407.36 136.809 411.32 136.809 Q 415.06 136.809 416.435 138.789 Q 417.81 140.769 417.81 143.409 Q 417.81 146.269 416.435 148.249 Q 415.06 150.229 411.32 150.229 Z" style="fill: rgb(2, 132, 199); text-wrap-mode: nowrap;"></path>
  </g>
</svg>