<svg width="1200" height="630" xmlns="http://www.w3.org/2000/svg" viewBox="1.712 5.742 1197.149 620.847" xmlns:bx="https://boxy-svg.com">
  <defs>
    <linearGradient id="bgGrad" x1="0%" y1="0%" x2="100%" y2="100%">
      <stop offset="0%" style="stop-color:#0a0a0a;stop-opacity:1"></stop>
      <stop offset="100%" style="stop-color:#262222;stop-opacity:1"></stop>
    </linearGradient>
    <linearGradient x1="0%" y1="0%" x2="100%" y2="100%" id="gradient-0">
      <stop offset="0%" style="stop-color:#7dd3fc;stop-opacity:1"></stop>
      <stop offset="100%" style="stop-color:#0284c7;stop-opacity:1"></stop>
    </linearGradient>
  </defs>
  <rect width="1200" height="630" fill="url(#bgGrad)" x="0" y="0" style="stroke-width: 1;"></rect>
  <rect width="1200" height="630" fill="url(#grid)" x="0" y="0" style="stroke-width: 1;"></rect>
  <g transform="matrix(1, 0, 0, 1, 73.383789, 73)">
    <bx:title>Logo</bx:title>
    <g transform="matrix(1, 0, 0, 1, 73.808205, 2.720381)">
      <bx:title>Cyberpath</bx:title>
      <path d="M 186.068 174.393 Q 179.138 174.393 173.603 171.423 Q 168.068 168.453 164.873 162.648 Q 161.678 156.843 161.678 148.203 Q 161.678 139.473 164.828 133.623 Q 167.978 127.773 173.603 124.848 Q 179.228 121.923 186.428 121.923 Q 192.368 121.923 196.958 124.083 Q 201.548 126.243 204.653 130.338 Q 207.758 134.433 208.838 140.373 L 204.608 140.373 Q 203.708 135.603 201.143 132.318 Q 198.578 129.033 194.843 127.368 Q 191.108 125.703 186.428 125.703 Q 176.888 125.703 171.353 131.463 Q 165.818 137.223 165.818 148.023 Q 165.818 159.183 171.263 164.898 Q 176.708 170.613 186.068 170.613 Q 191.198 170.613 195.158 168.903 Q 199.118 167.193 201.593 163.953 Q 204.068 160.713 204.878 156.033 L 209.288 156.033 Q 208.208 161.883 205.148 165.978 Q 202.088 170.073 197.273 172.233 Q 192.458 174.393 186.068 174.393 Z" style="fill: #fefefe; text-wrap-mode: nowrap;"></path>
      <path d="M 212.253 189.513 L 212.253 186.093 L 216.933 186.093 Q 218.193 186.093 219.003 185.643 Q 219.813 185.193 220.668 183.978 Q 221.523 182.763 222.603 180.423 L 227.103 170.613 L 212.793 136.953 L 217.113 136.953 L 229.263 166.113 L 242.133 136.953 L 246.543 136.953 L 226.203 181.143 Q 225.033 183.843 224.043 185.508 Q 223.053 187.173 222.063 188.073 Q 221.073 188.973 219.858 189.243 Q 218.643 189.513 217.113 189.513 Z" style="fill: #fefefe; text-wrap-mode: nowrap;"></path>
      <path d="M 270.383 174.393 Q 266.783 174.393 264.263 173.133 Q 261.743 171.873 260.078 170.073 Q 258.413 168.273 257.558 166.698 Q 256.703 165.123 256.523 164.673 L 256.343 164.673 L 255.623 173.493 L 252.113 173.493 L 252.113 122.823 L 256.433 122.823 L 256.433 146.853 L 256.613 146.853 Q 256.793 146.223 257.558 144.648 Q 258.323 143.073 259.898 141.273 Q 261.473 139.473 264.038 138.213 Q 266.603 136.953 270.383 136.953 Q 275.603 136.953 279.248 139.428 Q 282.893 141.903 284.828 146.178 Q 286.763 150.453 286.763 155.673 Q 286.763 160.983 284.828 165.213 Q 282.893 169.443 279.248 171.918 Q 275.603 174.393 270.383 174.393 Z M 269.843 170.523 Q 274.343 170.523 277.178 168.408 Q 280.013 166.293 281.318 162.828 Q 282.623 159.363 282.623 155.673 Q 282.623 151.893 281.183 148.518 Q 279.743 145.143 276.773 143.028 Q 273.803 140.913 269.303 140.913 Q 265.703 140.913 262.823 142.668 Q 259.943 144.423 258.233 147.708 Q 256.523 150.993 256.523 155.673 Q 256.523 160.353 258.323 163.728 Q 260.123 167.103 263.138 168.813 Q 266.153 170.523 269.843 170.523 Z" style="fill: #fefefe; text-wrap-mode: nowrap;"></path>
      <path d="M 309.531 174.393 Q 303.681 174.393 299.856 171.603 Q 296.031 168.813 294.141 164.448 Q 292.251 160.083 292.341 155.403 Q 292.341 150.543 294.321 146.313 Q 296.301 142.083 300.126 139.518 Q 303.951 136.953 309.441 136.953 Q 314.031 136.953 317.586 138.978 Q 321.141 141.003 323.301 144.648 Q 325.461 148.293 325.731 153.333 Q 325.821 153.783 325.821 154.413 Q 325.821 155.043 325.821 155.583 L 296.301 155.583 Q 296.301 162.513 299.766 166.653 Q 303.231 170.793 309.531 170.793 Q 314.121 170.793 317.496 168.363 Q 320.871 165.933 321.681 161.793 L 325.731 161.793 Q 325.101 165.483 322.851 168.318 Q 320.601 171.153 317.181 172.773 Q 313.761 174.393 309.531 174.393 Z M 296.571 152.883 L 321.591 152.883 Q 321.501 151.173 320.826 149.058 Q 320.151 146.943 318.711 144.963 Q 317.271 142.983 314.976 141.723 Q 312.681 140.463 309.441 140.463 Q 306.471 140.463 304.221 141.498 Q 301.971 142.533 300.396 144.243 Q 298.821 145.953 297.876 148.158 Q 296.931 150.363 296.571 152.883 Z" style="fill: #fefefe; text-wrap-mode: nowrap;"></path>
      <path d="M 334.461 173.493 L 334.461 136.953 L 337.971 136.953 L 338.601 147.483 L 338.511 155.313 L 338.511 173.493 Z M 338.511 155.853 L 338.241 147.933 Q 338.421 145.773 339.366 143.793 Q 340.311 141.813 342.066 140.283 Q 343.821 138.753 346.296 137.853 Q 348.771 136.953 352.101 136.953 L 354.081 136.953 L 354.081 141.543 L 352.101 141.543 Q 347.511 141.543 344.766 142.668 Q 342.021 143.793 340.671 145.728 Q 339.321 147.663 338.916 150.273 Q 338.511 152.883 338.511 155.853 Z" style="fill: #fefefe; text-wrap-mode: nowrap;"></path>
      <path d="M 378.017 174.393 Q 374.417 174.393 371.897 173.133 Q 369.377 171.873 367.757 170.073 Q 366.137 168.273 365.282 166.698 Q 364.427 165.123 364.157 164.673 L 363.977 164.673 L 363.977 187.893 L 359.837 187.893 L 359.837 136.953 L 363.347 136.953 L 364.067 146.853 L 364.247 146.853 Q 364.517 146.223 365.237 144.648 Q 365.957 143.073 367.532 141.273 Q 369.107 139.473 371.672 138.213 Q 374.237 136.953 377.927 136.953 Q 383.237 136.953 386.882 139.473 Q 390.527 141.993 392.462 146.223 Q 394.397 150.453 394.397 155.763 Q 394.397 161.073 392.417 165.303 Q 390.437 169.533 386.792 171.963 Q 383.147 174.393 378.017 174.393 Z M 377.567 170.523 Q 382.067 170.523 384.902 168.408 Q 387.737 166.293 389.042 162.828 Q 390.347 159.363 390.347 155.673 Q 390.347 151.893 388.907 148.518 Q 387.467 145.143 384.452 143.028 Q 381.437 140.913 376.937 140.913 Q 373.337 140.913 370.457 142.668 Q 367.577 144.423 365.912 147.708 Q 364.247 150.993 364.247 155.673 Q 364.247 160.353 366.047 163.728 Q 367.847 167.103 370.862 168.813 Q 373.877 170.523 377.567 170.523 Z" style="fill: #fefefe; text-wrap-mode: nowrap;"></path>
      <path d="M 413.745 174.303 Q 408.705 174.303 405.375 171.783 Q 402.045 169.263 400.425 164.988 Q 398.805 160.713 398.805 155.493 Q 398.805 150.003 400.47 145.773 Q 402.135 141.543 405.51 139.068 Q 408.885 136.593 413.745 136.593 Q 416.445 136.593 418.515 137.313 Q 420.585 138.033 422.205 139.203 Q 423.825 140.373 424.95 141.858 Q 426.075 143.343 426.705 145.053 L 426.795 145.053 L 426.795 136.953 L 431.025 136.953 L 431.025 173.493 L 427.605 173.493 L 426.885 165.933 L 426.705 165.933 Q 425.985 167.553 424.86 169.038 Q 423.735 170.523 422.115 171.738 Q 420.495 172.953 418.425 173.628 Q 416.355 174.303 413.745 174.303 Z M 415.275 170.523 Q 419.145 170.523 421.71 168.723 Q 424.275 166.923 425.535 163.548 Q 426.795 160.173 426.795 155.583 Q 426.795 150.543 425.445 147.258 Q 424.095 143.973 421.53 142.263 Q 418.965 140.553 415.275 140.553 Q 411.045 140.553 408.3 142.533 Q 405.555 144.513 404.25 147.843 Q 402.945 151.173 402.945 155.493 Q 402.945 159.903 404.295 163.323 Q 405.645 166.743 408.39 168.633 Q 411.135 170.523 415.275 170.523 Z" style="fill: #fefefe; text-wrap-mode: nowrap;"></path>
      <path d="M 445.69 173.493 Q 442.9 173.493 442.045 171.873 Q 441.19 170.253 441.19 168.003 L 441.19 139.563 L 445.15 139.563 L 445.15 169.983 L 453.7 169.983 L 453.7 173.493 Z M 435.16 140.283 L 435.16 136.953 Q 437.59 136.953 438.895 136.773 Q 440.2 136.593 440.695 135.738 Q 441.19 134.883 441.325 132.948 Q 441.46 131.013 441.46 127.503 L 445.15 127.503 L 445.15 136.953 L 453.7 136.953 L 453.7 140.283 Z" style="fill: #fefefe; text-wrap-mode: nowrap;"></path>
      <path d="M 461.711 173.493 L 461.711 122.823 L 465.851 122.823 L 465.851 146.673 L 466.031 146.673 Q 466.211 146.043 466.931 144.513 Q 467.651 142.983 469.181 141.228 Q 470.711 139.473 473.186 138.213 Q 475.661 136.953 479.351 136.953 Q 483.131 136.953 485.651 138.033 Q 488.171 139.113 489.746 141.003 Q 491.321 142.893 492.131 145.278 Q 492.941 147.663 493.211 150.228 Q 493.481 152.793 493.481 155.403 L 493.481 173.493 L 489.521 173.493 L 489.521 155.403 Q 489.521 150.903 488.531 147.618 Q 487.541 144.333 485.201 142.533 Q 482.861 140.733 478.631 140.733 Q 474.311 140.733 471.476 142.893 Q 468.641 145.053 467.246 148.563 Q 465.851 152.073 465.851 156.213 L 465.851 173.493 Z" style="fill: #fefefe; text-wrap-mode: nowrap;"></path>
    </g>
    <g transform="matrix(1, 0, 0, 1, 73.808205, 2.720381)">
      <bx:title>Quant+dot</bx:title>
      <g>
        <bx:title>Quant</bx:title>
        <path d="M 547.928 174.753 Q 535.598 174.753 529.118 167.598 Q 522.638 160.443 522.638 148.293 Q 522.638 140.373 525.428 134.433 Q 528.218 128.493 533.843 125.208 Q 539.468 121.923 547.928 121.923 Q 556.208 121.923 561.833 125.208 Q 567.458 128.493 570.293 134.388 Q 573.128 140.283 573.128 148.203 Q 573.128 156.123 570.293 162.108 Q 567.458 168.093 561.833 171.423 Q 556.208 174.753 547.928 174.753 Z M 554.408 185.013 Q 552.698 185.013 550.898 184.743 Q 549.098 184.473 547.568 183.393 Q 546.038 182.313 545.093 179.838 Q 544.148 177.363 544.148 172.953 L 544.148 169.083 L 552.878 169.083 L 552.878 172.323 Q 552.878 174.393 552.968 175.653 Q 553.058 176.913 553.958 177.453 Q 554.858 177.993 557.018 177.993 Q 557.468 177.993 558.863 177.588 Q 560.258 177.183 561.428 177.183 L 561.518 184.113 Q 561.338 184.113 560.303 184.248 Q 559.268 184.383 558.008 184.563 Q 556.748 184.743 555.668 184.878 Q 554.588 185.013 554.408 185.013 Z M 547.838 165.753 Q 555.848 165.753 559.808 160.893 Q 563.768 156.033 563.768 148.023 Q 563.768 139.923 559.853 135.063 Q 555.938 130.203 547.838 130.203 Q 540.008 130.203 535.958 134.883 Q 531.908 139.563 531.908 147.933 Q 531.908 156.033 535.868 160.893 Q 539.828 165.753 547.838 165.753 Z" style="fill: #fefefe; text-wrap-mode: nowrap;"></path>
        <path d="M 592.022 174.393 Q 588.152 174.393 585.677 173.133 Q 583.202 171.873 581.807 169.803 Q 580.412 167.733 579.782 165.213 Q 579.152 162.693 578.972 160.128 Q 578.792 157.563 578.792 155.403 L 578.792 136.503 L 587.702 136.503 L 587.702 155.403 Q 587.702 158.193 588.242 160.668 Q 588.782 163.143 590.537 164.718 Q 592.292 166.293 595.892 166.293 Q 599.402 166.293 601.202 164.718 Q 603.002 163.143 603.632 160.668 Q 604.262 158.193 604.352 155.673 L 604.352 136.503 L 613.802 136.503 L 613.802 173.493 L 605.972 173.493 L 604.442 166.473 L 604.262 166.473 Q 604.082 167.013 603.362 168.273 Q 602.642 169.533 601.247 170.973 Q 599.852 172.413 597.602 173.403 Q 595.352 174.393 592.022 174.393 Z" style="fill: #fefefe; text-wrap-mode: nowrap;"></path>
        <path d="M 633.32 174.393 Q 628.28 174.393 625.13 172.008 Q 621.98 169.623 620.585 165.348 Q 619.19 161.073 619.19 155.493 Q 619.19 149.823 620.63 145.503 Q 622.07 141.183 625.175 138.798 Q 628.28 136.413 633.32 136.413 Q 636.56 136.413 638.765 137.313 Q 640.97 138.213 642.365 139.473 Q 643.76 140.733 644.48 141.948 Q 645.2 143.163 645.47 143.883 L 645.65 143.883 L 645.65 136.503 L 655.1 136.503 L 655.1 173.493 L 647.18 173.493 L 645.65 167.463 L 645.47 167.463 Q 645.29 168.093 644.48 169.218 Q 643.67 170.343 642.275 171.558 Q 640.88 172.773 638.675 173.583 Q 636.47 174.393 633.32 174.393 Z M 637.1 166.653 Q 640.43 166.653 642.32 165.213 Q 644.21 163.773 644.93 161.208 Q 645.65 158.643 645.65 155.583 Q 645.65 152.253 644.885 149.778 Q 644.12 147.303 642.275 145.908 Q 640.43 144.513 637.1 144.513 Q 633.59 144.513 631.655 146.043 Q 629.72 147.573 628.955 150.048 Q 628.19 152.523 628.19 155.583 Q 628.19 158.643 628.955 161.163 Q 629.72 163.683 631.655 165.168 Q 633.59 166.653 637.1 166.653 Z" style="fill: #fefefe; text-wrap-mode: nowrap;"></path>
        <path d="M 661.399 173.493 L 661.399 136.503 L 669.229 136.503 L 670.759 144.513 L 670.939 144.513 Q 671.029 144.243 671.614 143.028 Q 672.199 141.813 673.594 140.283 Q 674.989 138.753 677.374 137.628 Q 679.759 136.503 683.359 136.503 Q 687.319 136.503 689.794 137.808 Q 692.269 139.113 693.709 141.228 Q 695.149 143.343 695.734 145.908 Q 696.319 148.473 696.454 150.993 Q 696.589 153.513 696.589 155.583 L 696.589 173.493 L 687.589 173.493 L 687.589 155.493 Q 687.589 152.523 687.004 150.093 Q 686.419 147.663 684.754 146.133 Q 683.089 144.603 679.579 144.603 Q 675.979 144.603 674.089 146.268 Q 672.199 147.933 671.479 150.453 Q 670.759 152.973 670.759 155.853 L 670.759 173.493 Z" style="fill: #fefefe; text-wrap-mode: nowrap;"></path>
        <path d="M 715.487 173.493 Q 711.077 173.493 708.872 171.333 Q 706.667 169.173 706.667 164.313 L 706.667 141.993 L 715.217 141.993 L 715.217 166.293 L 723.857 166.293 L 723.857 173.493 Z M 701.087 142.983 L 701.087 136.503 Q 703.067 136.503 704.327 136.233 Q 705.587 135.963 706.352 135.063 Q 707.117 134.163 707.477 132.273 Q 707.837 130.383 707.837 127.053 L 715.217 127.053 L 715.217 136.503 L 723.677 136.503 L 723.677 142.983 Z" style="fill: #fefefe; text-wrap-mode: nowrap;"></path>
      </g>
      <path d="M 738.021 173.493 Q 734.061 173.493 732.686 171.513 Q 731.311 169.533 731.311 166.673 Q 731.311 164.033 732.686 162.053 Q 734.061 160.073 738.021 160.073 Q 741.761 160.073 743.136 162.053 Q 744.511 164.033 744.511 166.673 Q 744.511 169.533 743.136 171.513 Q 741.761 173.493 738.021 173.493 Z" style="fill: rgb(2, 132, 199); text-wrap-mode: nowrap;"></path>
    </g>
  </g>
  <text x="600" y="350" font-family="Arial, sans-serif" font-size="36" text-anchor="middle" fill="white" style="white-space: pre;">Nextgen CVSS Calculator</text>
  <text x="600" y="420" font-family="Arial, sans-serif" font-size="24" text-anchor="middle" fill="#e5e7eb" style="white-space: pre;">Supports CVSS v4.0, v3.1, v3.0, and v2.0</text>
  <text style="fill: url(#gradient-0); font-family: Arial, sans-serif; font-size: 18px; text-anchor: middle; white-space: pre;" x="600" y="550">quant.cyberpath-hq.com</text>
  <pattern id="grid" width="40" height="40" patternUnits="userSpaceOnUse" patternTransform="matrix(1, 0, 0, 1, 0.291623, 1.175953)">
    <path d="M 40 0 L 0 0 0 40" fill="none" stroke="rgba(255,255,255,0.05)" stroke-width="1"></path>
  </pattern>
</svg>