<svg xmlns="http://www.w3.org/2000/svg" viewBox="110.902 142.019 690.506 100.883" xmlns:bx="https://boxy-svg.com">
  <g transform="matrix(1, 0, 0, 1, -2.985511, -2.186496)">
    <bx:title>Cyberpath</bx:title>
    <path d="M 156.026 213.412 Q 149.096 213.412 143.561 210.442 Q 138.026 207.472 134.831 201.667 Q 131.636 195.862 131.636 187.222 Q 131.636 178.492 134.786 172.642 Q 137.936 166.792 143.561 163.867 Q 149.186 160.942 156.386 160.942 Q 162.326 160.942 166.916 163.102 Q 171.506 165.262 174.611 169.357 Q 177.716 173.452 178.796 179.392 L 174.566 179.392 Q 173.666 174.622 171.101 171.337 Q 168.536 168.052 164.801 166.387 Q 161.066 164.722 156.386 164.722 Q 146.846 164.722 141.311 170.482 Q 135.776 176.242 135.776 187.042 Q 135.776 198.202 141.221 203.917 Q 146.666 209.632 156.026 209.632 Q 161.156 209.632 165.116 207.922 Q 169.076 206.212 171.551 202.972 Q 174.026 199.732 174.836 195.052 L 179.246 195.052 Q 178.166 200.902 175.106 204.997 Q 172.046 209.092 167.231 211.252 Q 162.416 213.412 156.026 213.412 Z" style="text-wrap-mode: nowrap; fill: rgb(255, 255, 255);"></path>
    <path d="M 182.208 228.532 L 182.208 225.112 L 186.888 225.112 Q 188.148 225.112 188.958 224.662 Q 189.768 224.212 190.623 222.997 Q 191.478 221.782 192.558 219.442 L 197.058 209.632 L 182.748 175.972 L 187.068 175.972 L 199.218 205.132 L 212.088 175.972 L 216.498 175.972 L 196.158 220.162 Q 194.988 222.862 193.998 224.527 Q 193.008 226.192 192.018 227.092 Q 191.028 227.992 189.813 228.262 Q 188.598 228.532 187.068 228.532 Z" style="text-wrap-mode: nowrap; fill: rgb(255, 255, 255);"></path>
    <path d="M 240.337 213.412 Q 236.737 213.412 234.217 212.152 Q 231.697 210.892 230.032 209.092 Q 228.367 207.292 227.512 205.717 Q 226.657 204.142 226.477 203.692 L 226.297 203.692 L 225.577 212.512 L 222.067 212.512 L 222.067 161.842 L 226.387 161.842 L 226.387 185.872 L 226.567 185.872 Q 226.747 185.242 227.512 183.667 Q 228.277 182.092 229.852 180.292 Q 231.427 178.492 233.992 177.232 Q 236.557 175.972 240.337 175.972 Q 245.557 175.972 249.202 178.447 Q 252.847 180.922 254.782 185.197 Q 256.717 189.472 256.717 194.692 Q 256.717 200.002 254.782 204.232 Q 252.847 208.462 249.202 210.937 Q 245.557 213.412 240.337 213.412 Z M 239.797 209.542 Q 244.297 209.542 247.132 207.427 Q 249.967 205.312 251.272 201.847 Q 252.577 198.382 252.577 194.692 Q 252.577 190.912 251.137 187.537 Q 249.697 184.162 246.727 182.047 Q 243.757 179.932 239.257 179.932 Q 235.657 179.932 232.777 181.687 Q 229.897 183.442 228.187 186.727 Q 226.477 190.012 226.477 194.692 Q 226.477 199.372 228.277 202.747 Q 230.077 206.122 233.092 207.832 Q 236.107 209.542 239.797 209.542 Z" style="text-wrap-mode: nowrap; fill: rgb(255, 255, 255);"></path>
    <path d="M 279.483 213.412 Q 273.633 213.412 269.808 210.622 Q 265.983 207.832 264.093 203.467 Q 262.203 199.102 262.293 194.422 Q 262.293 189.562 264.273 185.332 Q 266.253 181.102 270.078 178.537 Q 273.903 175.972 279.393 175.972 Q 283.983 175.972 287.538 177.997 Q 291.093 180.022 293.253 183.667 Q 295.413 187.312 295.683 192.352 Q 295.773 192.802 295.773 193.432 Q 295.773 194.062 295.773 194.602 L 266.253 194.602 Q 266.253 201.532 269.718 205.672 Q 273.183 209.812 279.483 209.812 Q 284.073 209.812 287.448 207.382 Q 290.823 204.952 291.633 200.812 L 295.683 200.812 Q 295.053 204.502 292.803 207.337 Q 290.553 210.172 287.133 211.792 Q 283.713 213.412 279.483 213.412 Z M 266.523 191.902 L 291.543 191.902 Q 291.453 190.192 290.778 188.077 Q 290.103 185.962 288.663 183.982 Q 287.223 182.002 284.928 180.742 Q 282.633 179.482 279.393 179.482 Q 276.423 179.482 274.173 180.517 Q 271.923 181.552 270.348 183.262 Q 268.773 184.972 267.828 187.177 Q 266.883 189.382 266.523 191.902 Z" style="text-wrap-mode: nowrap; fill: rgb(255, 255, 255);"></path>
    <path d="M 304.41 212.512 L 304.41 175.972 L 307.92 175.972 L 308.55 186.502 L 308.46 194.332 L 308.46 212.512 Z M 308.46 194.872 L 308.19 186.952 Q 308.37 184.792 309.315 182.812 Q 310.26 180.832 312.015 179.302 Q 313.77 177.772 316.245 176.872 Q 318.72 175.972 322.05 175.972 L 324.03 175.972 L 324.03 180.562 L 322.05 180.562 Q 317.46 180.562 314.715 181.687 Q 311.97 182.812 310.62 184.747 Q 309.27 186.682 308.865 189.292 Q 308.46 191.902 308.46 194.872 Z" style="text-wrap-mode: nowrap; fill: rgb(255, 255, 255);"></path>
    <path d="M 347.975 213.412 Q 344.375 213.412 341.855 212.152 Q 339.335 210.892 337.715 209.092 Q 336.095 207.292 335.24 205.717 Q 334.385 204.142 334.115 203.692 L 333.935 203.692 L 333.935 226.912 L 329.795 226.912 L 329.795 175.972 L 333.305 175.972 L 334.025 185.872 L 334.205 185.872 Q 334.475 185.242 335.195 183.667 Q 335.915 182.092 337.49 180.292 Q 339.065 178.492 341.63 177.232 Q 344.195 175.972 347.885 175.972 Q 353.195 175.972 356.84 178.492 Q 360.485 181.012 362.42 185.242 Q 364.355 189.472 364.355 194.782 Q 364.355 200.092 362.375 204.322 Q 360.395 208.552 356.75 210.982 Q 353.105 213.412 347.975 213.412 Z M 347.525 209.542 Q 352.025 209.542 354.86 207.427 Q 357.695 205.312 359 201.847 Q 360.305 198.382 360.305 194.692 Q 360.305 190.912 358.865 187.537 Q 357.425 184.162 354.41 182.047 Q 351.395 179.932 346.895 179.932 Q 343.295 179.932 340.415 181.687 Q 337.535 183.442 335.87 186.727 Q 334.205 190.012 334.205 194.692 Q 334.205 199.372 336.005 202.747 Q 337.805 206.122 340.82 207.832 Q 343.835 209.542 347.525 209.542 Z" style="text-wrap-mode: nowrap; fill: rgb(255, 255, 255);"></path>
    <path d="M 383.701 213.322 Q 378.661 213.322 375.331 210.802 Q 372.001 208.282 370.381 204.007 Q 368.761 199.732 368.761 194.512 Q 368.761 189.022 370.426 184.792 Q 372.091 180.562 375.466 178.087 Q 378.841 175.612 383.701 175.612 Q 386.401 175.612 388.471 176.332 Q 390.541 177.052 392.161 178.222 Q 393.781 179.392 394.906 180.877 Q 396.031 182.362 396.661 184.072 L 396.751 184.072 L 396.751 175.972 L 400.981 175.972 L 400.981 212.512 L 397.561 212.512 L 396.841 204.952 L 396.661 204.952 Q 395.941 206.572 394.816 208.057 Q 393.691 209.542 392.071 210.757 Q 390.451 211.972 388.381 212.647 Q 386.311 213.322 383.701 213.322 Z M 385.231 209.542 Q 389.101 209.542 391.666 207.742 Q 394.231 205.942 395.491 202.567 Q 396.751 199.192 396.751 194.602 Q 396.751 189.562 395.401 186.277 Q 394.051 182.992 391.486 181.282 Q 388.921 179.572 385.231 179.572 Q 381.001 179.572 378.256 181.552 Q 375.511 183.532 374.206 186.862 Q 372.901 190.192 372.901 194.512 Q 372.901 198.922 374.251 202.342 Q 375.601 205.762 378.346 207.652 Q 381.091 209.542 385.231 209.542 Z" style="text-wrap-mode: nowrap; fill: rgb(255, 255, 255);"></path>
    <path d="M 415.649 212.512 Q 412.859 212.512 412.004 210.892 Q 411.149 209.272 411.149 207.022 L 411.149 178.582 L 415.109 178.582 L 415.109 209.002 L 423.659 209.002 L 423.659 212.512 Z M 405.119 179.302 L 405.119 175.972 Q 407.549 175.972 408.854 175.792 Q 410.159 175.612 410.654 174.757 Q 411.149 173.902 411.284 171.967 Q 411.419 170.032 411.419 166.522 L 415.109 166.522 L 415.109 175.972 L 423.659 175.972 L 423.659 179.302 Z" style="text-wrap-mode: nowrap; fill: rgb(255, 255, 255);"></path>
    <path d="M 431.666 212.512 L 431.666 161.842 L 435.806 161.842 L 435.806 185.692 L 435.986 185.692 Q 436.166 185.062 436.886 183.532 Q 437.606 182.002 439.136 180.247 Q 440.666 178.492 443.141 177.232 Q 445.616 175.972 449.306 175.972 Q 453.086 175.972 455.606 177.052 Q 458.126 178.132 459.701 180.022 Q 461.276 181.912 462.086 184.297 Q 462.896 186.682 463.166 189.247 Q 463.436 191.812 463.436 194.422 L 463.436 212.512 L 459.476 212.512 L 459.476 194.422 Q 459.476 189.922 458.486 186.637 Q 457.496 183.352 455.156 181.552 Q 452.816 179.752 448.586 179.752 Q 444.266 179.752 441.431 181.912 Q 438.596 184.072 437.201 187.582 Q 435.806 191.092 435.806 195.232 L 435.806 212.512 Z" style="text-wrap-mode: nowrap; fill: rgb(255, 255, 255);"></path>
  </g>
  <g transform="matrix(1, 0, 0, 1, -2.985511, -2.186496)">
    <bx:title>Sentinel+dot</bx:title>
    <g>
      <bx:title>Sentinel</bx:title>
      <path d="M 514.462 213.502 Q 510.232 213.502 506.272 212.557 Q 502.312 211.612 499.117 209.452 Q 495.922 207.292 493.987 203.962 Q 492.052 200.632 491.962 195.862 L 501.232 195.862 Q 501.232 196.222 501.412 197.257 Q 501.592 198.292 502.357 199.642 Q 503.122 200.992 504.607 202.252 Q 506.092 203.512 508.657 204.367 Q 511.222 205.222 515.092 205.222 Q 517.792 205.222 519.727 204.682 Q 521.662 204.142 522.967 203.242 Q 524.272 202.342 524.902 201.217 Q 525.532 200.092 525.532 199.012 Q 525.532 196.492 523.777 195.007 Q 522.022 193.522 519.097 192.577 Q 516.172 191.632 512.707 190.867 Q 509.242 190.102 505.777 189.022 Q 502.312 187.942 499.432 186.187 Q 496.552 184.432 494.977 181.642 Q 493.402 178.852 493.582 174.532 Q 493.942 170.302 496.552 167.242 Q 499.162 164.182 503.842 162.562 Q 508.522 160.942 514.732 160.942 Q 520.132 160.942 524.767 162.877 Q 529.402 164.812 532.237 168.637 Q 535.072 172.462 535.072 178.402 L 526.162 178.402 Q 526.162 175.612 524.902 173.857 Q 523.642 172.102 521.707 171.157 Q 519.772 170.212 517.612 169.897 Q 515.452 169.582 513.742 169.582 Q 509.242 169.582 506.317 171.067 Q 503.392 172.552 503.392 175.612 Q 503.302 178.222 505.102 179.707 Q 506.902 181.192 509.872 182.092 Q 512.842 182.992 516.352 183.757 Q 519.862 184.522 523.372 185.512 Q 526.882 186.502 529.717 188.212 Q 532.552 189.922 534.217 192.712 Q 535.882 195.502 535.612 200.002 Q 535.432 204.232 532.642 207.247 Q 529.852 210.262 525.217 211.882 Q 520.582 213.502 514.462 213.502 Z" style="text-wrap-mode: nowrap; fill: rgb(255, 255, 255);"></path>
      <path d="M 560.178 213.412 Q 553.788 213.412 549.783 210.667 Q 545.778 207.922 543.843 203.602 Q 541.908 199.282 541.818 194.602 Q 541.728 189.022 543.933 184.657 Q 546.138 180.292 550.233 177.817 Q 554.328 175.342 559.908 175.342 Q 564.858 175.342 568.818 177.502 Q 572.778 179.662 575.073 183.532 Q 577.368 187.402 577.458 192.802 Q 577.458 192.982 577.458 193.837 Q 577.458 194.692 577.458 195.142 L 550.548 195.142 Q 550.548 200.272 553.113 203.017 Q 555.678 205.762 559.998 205.762 Q 563.418 205.762 565.713 204.052 Q 568.008 202.342 568.458 199.552 L 577.368 199.552 Q 577.008 203.422 574.848 206.572 Q 572.688 209.722 568.998 211.567 Q 565.308 213.412 560.178 213.412 Z M 550.818 191.002 L 568.278 191.002 Q 568.188 190.372 567.918 189.022 Q 567.648 187.672 566.748 186.232 Q 565.848 184.792 564.138 183.802 Q 562.428 182.812 559.728 182.812 Q 557.028 182.812 555.318 183.712 Q 553.608 184.612 552.708 185.962 Q 551.808 187.312 551.358 188.662 Q 550.908 190.012 550.818 191.002 Z" style="text-wrap-mode: nowrap; fill: rgb(255, 255, 255);"></path>
      <path d="M 584.471 212.512 L 584.471 175.522 L 592.301 175.522 L 593.831 183.532 L 594.011 183.532 Q 594.101 183.262 594.686 182.047 Q 595.271 180.832 596.666 179.302 Q 598.061 177.772 600.446 176.647 Q 602.831 175.522 606.431 175.522 Q 610.391 175.522 612.866 176.827 Q 615.341 178.132 616.781 180.247 Q 618.221 182.362 618.806 184.927 Q 619.391 187.492 619.526 190.012 Q 619.661 192.532 619.661 194.602 L 619.661 212.512 L 610.661 212.512 L 610.661 194.512 Q 610.661 191.542 610.076 189.112 Q 609.491 186.682 607.826 185.152 Q 606.161 183.622 602.651 183.622 Q 599.051 183.622 597.161 185.287 Q 595.271 186.952 594.551 189.472 Q 593.831 191.992 593.831 194.872 L 593.831 212.512 Z" style="text-wrap-mode: nowrap; fill: rgb(255, 255, 255);"></path>
      <path d="M 638.557 212.512 Q 634.147 212.512 631.942 210.352 Q 629.737 208.192 629.737 203.332 L 629.737 181.012 L 638.287 181.012 L 638.287 205.312 L 646.927 205.312 L 646.927 212.512 Z M 624.157 182.002 L 624.157 175.522 Q 626.137 175.522 627.397 175.252 Q 628.657 174.982 629.422 174.082 Q 630.187 173.182 630.547 171.292 Q 630.907 169.402 630.907 166.072 L 638.287 166.072 L 638.287 175.522 L 646.747 175.522 L 646.747 182.002 Z" style="text-wrap-mode: nowrap; fill: rgb(255, 255, 255);"></path>
      <path d="M 654.932 212.512 L 654.932 175.522 L 664.112 175.522 L 664.112 212.512 Z M 659.522 170.752 Q 656.552 170.752 655.517 169.222 Q 654.482 167.692 654.482 165.712 Q 654.482 163.732 655.517 162.247 Q 656.552 160.762 659.522 160.762 Q 662.582 160.762 663.527 162.247 Q 664.472 163.732 664.472 165.712 Q 664.472 167.692 663.527 169.222 Q 662.582 170.752 659.522 170.752 Z" style="text-wrap-mode: nowrap; fill: rgb(255, 255, 255);"></path>
      <path d="M 671.76 212.512 L 671.76 175.522 L 679.59 175.522 L 681.12 183.532 L 681.3 183.532 Q 681.39 183.262 681.975 182.047 Q 682.56 180.832 683.955 179.302 Q 685.35 177.772 687.735 176.647 Q 690.12 175.522 693.72 175.522 Q 697.68 175.522 700.155 176.827 Q 702.63 178.132 704.07 180.247 Q 705.51 182.362 706.095 184.927 Q 706.68 187.492 706.815 190.012 Q 706.95 192.532 706.95 194.602 L 706.95 212.512 L 697.95 212.512 L 697.95 194.512 Q 697.95 191.542 697.365 189.112 Q 696.78 186.682 695.115 185.152 Q 693.45 183.622 689.94 183.622 Q 686.34 183.622 684.45 185.287 Q 682.56 186.952 681.84 189.472 Q 681.12 191.992 681.12 194.872 L 681.12 212.512 Z" style="text-wrap-mode: nowrap; fill: rgb(255, 255, 255);"></path>
      <path d="M 730.976 213.412 Q 724.586 213.412 720.581 210.667 Q 716.576 207.922 714.641 203.602 Q 712.706 199.282 712.616 194.602 Q 712.526 189.022 714.731 184.657 Q 716.936 180.292 721.031 177.817 Q 725.126 175.342 730.706 175.342 Q 735.656 175.342 739.616 177.502 Q 743.576 179.662 745.871 183.532 Q 748.166 187.402 748.256 192.802 Q 748.256 192.982 748.256 193.837 Q 748.256 194.692 748.256 195.142 L 721.346 195.142 Q 721.346 200.272 723.911 203.017 Q 726.476 205.762 730.796 205.762 Q 734.216 205.762 736.511 204.052 Q 738.806 202.342 739.256 199.552 L 748.166 199.552 Q 747.806 203.422 745.646 206.572 Q 743.486 209.722 739.796 211.567 Q 736.106 213.412 730.976 213.412 Z M 721.616 191.002 L 739.076 191.002 Q 738.986 190.372 738.716 189.022 Q 738.446 187.672 737.546 186.232 Q 736.646 184.792 734.936 183.802 Q 733.226 182.812 730.526 182.812 Q 727.826 182.812 726.116 183.712 Q 724.406 184.612 723.506 185.962 Q 722.606 187.312 722.156 188.662 Q 721.706 190.012 721.616 191.002 Z" style="text-wrap-mode: nowrap; fill: rgb(255, 255, 255);"></path>
      <path d="M 756.259 212.512 L 756.259 161.842 L 765.259 161.842 L 765.259 212.512 Z" style="text-wrap-mode: nowrap; fill: rgb(255, 255, 255);"></path>
    </g>
    <path d="M 780.155 212.512 Q 776.195 212.512 774.82 210.532 Q 773.445 208.552 773.445 205.692 Q 773.445 203.052 774.82 201.072 Q 776.195 199.092 780.155 199.092 Q 783.895 199.092 785.27 201.072 Q 786.645 203.052 786.645 205.692 Q 786.645 208.552 785.27 210.532 Q 783.895 212.512 780.155 212.512 Z" style="fill: rgb(16, 185, 129); text-wrap-mode: nowrap;"></path>
  </g>
  <defs>
    <style bx:fonts="Darker Grotesque">@import url(https://fonts.googleapis.com/css2?family=Darker+Grotesque%3Aital%2Cwght%400%2C300..900&amp;display=swap);</style>
  </defs>
</svg>